<?xml version="1.0" encoding="UTF-8" standalone="no"?>
<svg
   id="wave"
   viewBox="0 0 5000 5000"
   version="1.1"
   sodipodi:docname="wave-verde.svg"
   inkscape:export-filename="../Documentos/wave-verde.svg"
   inkscape:export-xdpi="96"
   inkscape:export-ydpi="96"
   width="5000"
   height="5000"
   inkscape:version="1.3 (1:1.3+202307231459+0e150ed6c4)"
   xmlns:inkscape="http://www.inkscape.org/namespaces/inkscape"
   xmlns:sodipodi="http://sodipodi.sourceforge.net/DTD/sodipodi-0.dtd"
   xmlns:xlink="http://www.w3.org/1999/xlink"
   xmlns="http://www.w3.org/2000/svg"
   xmlns:svg="http://www.w3.org/2000/svg">
  <sodipodi:namedview
     id="namedview2"
     pagecolor="#ffffff"
     bordercolor="#000000"
     borderopacity="0.25"
     inkscape:showpageshadow="2"
     inkscape:pageopacity="0.0"
     inkscape:pagecheckerboard="0"
     inkscape:deskcolor="#d1d1d1"
     inkscape:zoom="0.40138889"
     inkscape:cx="652.73356"
     inkscape:cy="503.2526"
     inkscape:window-width="1366"
     inkscape:window-height="736"
     inkscape:window-x="1366"
     inkscape:window-y="0"
     inkscape:window-maximized="1"
     inkscape:current-layer="wave" />
  <defs
     id="defs2">
    <linearGradient
       id="linearGradient6"
       inkscape:collect="always">
      <stop
         style="stop-color:#baf391;stop-opacity:1;"
         offset="0"
         id="stop6" />
      <stop
         style="stop-color:#0bb3d9;stop-opacity:0;"
         offset="1"
         id="stop7" />
    </linearGradient>
    <linearGradient
       id="sw-gradient-0-3"
       x1="0.24875589"
       x2="0"
       y1="1161.6859"
       y2="123.93547"
       gradientTransform="matrix(6.6580796,0,0,0.38192739,-5.2982547,112.18431)"
       gradientUnits="userSpaceOnUse">
      <stop
         stop-color="rgba(167, 242, 193, 1)"
         offset="0"
         id="stop1-6"
         style="stop-color:#ffffff;stop-opacity:0.68547195;" />
      <stop
         stop-color="rgba(167, 242, 193, 1)"
         offset="0.59905356"
         id="stop9"
         style="stop-color:#a7f2c1;stop-opacity:1;" />
      <stop
         stop-color="rgba(167, 242, 193, 1)"
         offset="0.98621827"
         id="stop2-7"
         style="stop-color:#9fecde;stop-opacity:1;" />
    </linearGradient>
    <linearGradient
       inkscape:collect="always"
       xlink:href="#linearGradient6"
       id="linearGradient7"
       x1="620.89294"
       y1="8.8379765"
       x2="620.89294"
       y2="956.83868"
       gradientUnits="userSpaceOnUse" />
  </defs>
  <g
     id="g9"
     transform="matrix(4.0787881,0,0,7.081072,-13.900344,-52.488184)">
    <rect
       style="opacity:1;fill:url(#linearGradient7);fill-rule:nonzero;stroke-width:0.99228"
       id="rect4"
       width="1279.7738"
       height="713.65826"
       x="0.065803766"
       y="6.2789431" />
    <path
       style="opacity:1;fill:#73d97a;fill-opacity:1;stroke-width:1.34604"
       fill="url(#sw-gradient-0)"
       d="m 11625.329,172.58851 -80.739,-14.36181 c -80.739,-14.36181 -242.217,-43.08542 -403.695,-33.57073 -161.478,10.23279 -322.957,56.90866 -484.435,91.01795 -161.478,34.10929 -322.956,52.06155 -484.434,23.87651 C 10010.547,210.28824 9849.0694,134.88876 9687.5913,91.264778 9526.1132,48.717923 9364.6351,37.946568 9203.157,38.485136 9041.6789,37.946568 8880.2007,48.717923 8718.7226,76.902969 8557.2445,106.16515 8395.7664,152.84102 8234.2883,191.79742 c -161.4781,38.23831 -322.9563,66.96192 -484.4344,47.75301 -161.4781,-18.49083 -322.9562,-86.70941 -484.4343,-100.53265 -161.4781,-14.90037 -322.9562,24.5946 -484.4344,24.05603 -161.4781,0.53857 -322.9562,-38.9564 -484.4343,-28.72362 -161.4781,9.5147 -322.9562,66.96193 -484.4344,81.32373 -161.4781,14.36181 -322.9562,-14.3618 -484.4343,-28.72361 -161.4781,-14.3618 -322.9562,-14.3618 -484.4343,-14.3618 -161.4782,0 -322.9563,0 -484.4344,-14.36181 C 4197.3354,143.86489 4035.8573,115.14128 3874.3792,91.264778 3712.9011,66.670182 3551.4229,48.717923 3389.9448,38.485136 3228.4667,28.970439 3066.9886,28.970439 2905.5105,48.179356 2744.0324,66.670182 2582.5542,106.16515 2421.0761,110.29417 2259.598,115.14128 2098.1199,86.417668 1936.6418,67.20875 1775.1637,48.717923 1594.5637,156.40758 1423.8048,136.589 1115.6282,29.345727 876.02386,26.314806 715.57192,27.717807 558.45001,30.983791 501.97423,21.860878 408.82296,44.120137 388.69538,48.929788 255.77374,73.323174 193.05864,111.26476 130.34354,149.20635 -0.2703538,143.02983 -0.2703538,143.02983 L -1.6295793,0.02888973 79.643964,0.24682484 h 403.695286 484.43435 484.4342 484.434 484.4343 484.4344 484.4343 484.4344 484.4343 484.4344 484.4343 484.4343 484.4344 484.4343 484.4344 484.4343 484.4344 484.4343 484.4344 484.4343 484.4347 484.434 484.435 403.695 80.739 z"
       id="path4"
       sodipodi:nodetypes="cscscccccccccsssscccccccszccccccccccccccccccccccccccccc" />
    <path
       style="fill:url(#sw-gradient-0-3);stroke-width:1.59465"
       fill="url(#sw-gradient-0)"
       d="M -5.2982547,159.51866 H 46.275045 c 51.573305,0 154.719805,0 257.866405,15.85701 103.1465,14.91032 206.293,48.04436 309.4395,110.28903 103.1466,63.19135 211.36334,123.51067 314.50994,131.32083 103.14641,8.75686 260.97691,-112.50765 364.12331,-174.75232 103.1467,-63.19135 146.5389,-35.3802 249.6854,4.14398 103.1466,38.57749 206.293,166.38023 309.4397,173.48038 103.1464,7.10015 206.2931,-101.76885 309.4395,-142.00304 103.1466,-40.2342 206.2931,-7.10015 309.4397,-15.85701 103.1465,-7.81016 206.293,-55.14451 309.4396,-78.81169 103.1465,-23.66717 206.2931,-23.66717 309.4395,15.85701 103.1466,38.57749 206.2931,119.04588 309.4396,149.81321 103.1466,30.76733 206.293,16.56702 309.4397,-15.85701 103.1464,-31.47734 206.293,-78.81168 309.4395,-102.47886 103.1466,-23.66717 206.2931,-23.66717 309.4395,0 103.1467,23.66718 206.2931,71.00152 309.4397,63.19136 103.1465,-8.75686 206.2931,-70.29151 309.4396,-63.19136 103.1466,7.10015 206.2931,87.56854 309.4397,126.14604 103.1465,39.52418 206.2931,39.52418 309.4395,0 103.1465,-38.5775 206.293,-119.04589 309.4396,-102.47886 103.1465,16.56702 206.2931,125.43602 309.4396,189.33739 103.1466,63.90137 206.293,78.10167 309.4397,55.14451 103.1464,-24.37719 206.2931,-85.91184 309.4395,-102.47886 103.1465,-16.56702 206.293,16.56702 309.4396,23.66717 103.1465,7.10015 206.2931,-7.10015 257.8663,-15.857 l 51.5733,-7.81017 V 585.52779 H 7369.6787 7111.8124 6802.3728 6492.9333 6183.4936 5874.054 5564.6144 5255.1749 4945.7352 4636.2956 4326.8559 4017.4164 3707.9769 3398.5372 3089.0976 2779.6581 2470.2185 2160.7788 1851.3393 1541.8996 L 1325.5955,718.8327 925.82484,716.54268 608.79106,711.37546 304.24972,709.8322 94.10184,707.81201 -0.4870793,716.94328 Z"
       id="path2"
       sodipodi:nodetypes="cscccccsscscscsscsccsscsscccccccccccccccccccccccccccccc" />
    <path
       style="fill:#ebebeb;fill-opacity:1;stroke-width:0.814381"
       fill="url(#sw-gradient-0)"
       d="M -2.413846,623.50298 117.56486,603.07227 c 119.9787,-20.69604 359.9361,-61.15946 599.89351,-53.19945 239.95742,7.96002 479.91473,65.67014 719.87213,77.74283 239.9574,12.4707 479.9149,-20.69604 719.8722,-24.54338 239.9574,-4.11268 479.9148,20.43071 719.8722,12.27169 239.9575,-8.42435 479.9149,-48.88777 719.8723,-57.31212 239.9574,-8.15902 479.9148,16.38437 719.8721,12.27169 239.9574,-3.84734 479.9148,-37.01408 719.8722,-28.58972 239.9574,8.15901 479.9148,57.24578 719.8722,53.13311 239.9574,-3.84734 479.9148,-61.55747 719.8722,-53.13311 239.9574,8.15901 479.9149,81.78917 719.8724,85.90184 239.9574,3.84735 479.9148,-61.15946 719.8722,-73.63015 239.9574,-12.07269 479.9148,28.39073 719.8722,53.13311 239.9574,24.34439 479.9148,32.96774 719.8722,45.04043 239.9574,12.47069 479.9148,28.39073 719.8721,8.15902 239.958,-20.23171 479.915,-77.94183 719.873,-77.74283 239.957,-0.199 479.914,57.51112 719.872,77.74283 239.957,20.23171 479.915,4.31167 719.872,-24.54339 239.958,-28.85506 479.915,-69.31848 719.872,-94.06086 239.958,-24.34439 479.915,-32.96774 719.873,-16.38437 239.957,16.58337 479.914,57.04679 719.872,77.74283 239.957,20.43071 479.915,20.43071 719.872,16.31803 239.957,-3.84734 479.915,-12.47069 719.872,-4.04634 239.959,8.15902 479.916,32.7024 719.873,24.54339 239.958,-8.42435 479.915,-48.88777 599.894,-69.58382 l 119.979,-20.43071 v 171.8037 h -119.979 c -119.979,0 -359.936,0 -599.894,0 -239.957,0 -479.914,0 -719.873,0 -239.957,0 -479.915,0 -719.872,0 -239.957,0 -479.915,0 -719.872,0 -239.958,0 -479.915,0 -719.872,0 -239.958,0 -479.915,0 -719.873,0 -239.957,0 -479.914,0 -719.872,0 -239.957,0 -479.915,0 -719.872,0 -239.958,0 -479.915,0 -719.872,0 -239.958,0 -479.915,0 -719.873,0 -239.9573,0 -479.9147,0 -719.8721,0 -239.9574,0 -479.9148,0 -719.8722,0 -239.9574,0 -479.9148,0 -719.8722,0 -239.9574,0 -479.9148,0 -719.8722,0 -239.9575,0 -479.915,0 -719.8724,0 -239.9574,0 -479.9148,0 -719.8722,0 -239.9574,0 -479.9148,0 -719.8722,0 -239.9574,0 -479.9148,0 -719.8722,0 -239.9573,0 -479.9147,0 -719.8721,0 -239.9574,0 -479.9148,0 -719.8723,0 -239.9574,0 -479.9148,0 -719.8722,0 -239.9573,0 -479.9148,0 -719.8722,0 -239.9574,0 -479.91471,0 -719.87213,0 -239.95741,0 -479.91481,0 -599.89351,0 H -2.413846 Z"
       id="path2-6" />
    <rect
       style="opacity:1;fill:none;fill-opacity:1;fill-rule:nonzero;stroke:none"
       id="rect9"
       width="1280.7903"
       height="717.5235"
       x="-0.47168982"
       y="-0.87776577" />
  </g>
</svg>
